<svg id="external-link" xmlns="http://www.w3.org/2000/svg" viewBox="0 0 12.001 12.001">
  <path d="M14.334,8.334A.667.667,0,0,0,13.668,9v4a.667.667,0,0,1-.667.667H5A.667.667,0,0,1,4.333,13V5A.667.667,0,0,1,5,4.333H9A.667.667,0,1,0,9,3H5A2,2,0,0,0,3,5v8a2,2,0,0,0,2,2h8a2,2,0,0,0,2-2V9A.667.667,0,0,0,14.334,8.334Z" transform="translate(-3 -3)" fill="#315efb"/>
  <path d="M14.387,4.356h1.071L11.195,8.612a.681.681,0,1,0,.962.962L16.42,5.318V6.389a.678.678,0,0,0,1.356,0V3.678A.678.678,0,0,0,17.1,3H14.387a.678.678,0,0,0,0,1.356Z" transform="translate(-5.775 -3)" fill="#315efb"/>
</svg>
